<svg version="1.1" viewBox="0.0 0.0 960.0 540.0" fill="none" stroke="none" stroke-linecap="square" stroke-miterlimit="10" xmlns:xlink="http://www.w3.org/1999/xlink" xmlns="http://www.w3.org/2000/svg"><clipPath id="gda153a51c1_0_53.0"><path d="m0 0l960.0 0l0 540.0l-960.0 0l0 -540.0z" clip-rule="nonzero"/></clipPath><g clip-path="url(#gda153a51c1_0_53.0)"><path fill="#a6a6a6" d="m0 0l960.0 0l0 540.0l-960.0 0z" fill-rule="evenodd"/><g filter="url(#shadowFilter-gda153a51c1_0_53.1)"><use xlink:href="#gda153a51c1_0_53.1" transform="matrix(1.0 0.0 0.0 1.0 0.0 2.0)"/></g><defs><filter id="shadowFilter-gda153a51c1_0_53.1" filterUnits="userSpaceOnUse"><feGaussianBlur in="SourceAlpha" stdDeviation="2.0" result="blur"/><feComponentTransfer in="blur" color-interpolation-filters="sRGB"><feFuncR type="linear" slope="0" intercept="0.0"/><feFuncG type="linear" slope="0" intercept="0.0"/><feFuncB type="linear" slope="0" intercept="0.0"/><feFuncA type="linear" slope="0.5" intercept="0"/></feComponentTransfer></filter></defs><g id="gda153a51c1_0_53.1"><path fill="#e0e0e0" d="m381.87402 90.47244l196.25195 0l0 75.2126l-196.25195 0z" fill-rule="evenodd"/><path fill="#000000" d="m429.46875 131.55624q1.96875 1.875 3.1875 3.28125l-1.875 1.6875q-3.5625 -4.21875 -8.15625 -7.59375l1.3125 -1.6875076q1.6875 1.0312576 3.75 2.9062576q2.8125 -2.8125076 5.71875 -6.9375076l-14.71875 0.65625l-0.375 -2.34375l16.40625 -0.375l0.9375 -0.28125l1.40625 1.5q0.46875 0.75 -0.375 0.65625q-2.34375 3.09375 -7.21875 8.531258zm21.65625 -3.46875q4.03125 3.09375 7.96875 7.125l-1.875 1.59375q-3.9375 -4.125 -7.59375 -6.9375q-3.65625 3.9375 -8.34375 7.03125l-1.78125 -1.59375q9.9375 -6.46875 12.75 -12.937508l-10.21875 0.65625l-0.28125 -2.25l10.875 -0.46875l1.125 -0.28125l1.5 1.5q0.65625 0.65625 -0.375 0.84375q-1.78125 3.09375 -3.75 5.7187576zm18.28125 -8.906258q-0.375 1.125 -0.9375 2.15625l6.28125 0l1.03125 -0.375l1.21875 1.21875q0.375 0.46875 -0.375 0.75q-0.75 3.75 -2.25 6.8437576l2.25 1.5l-1.40625 2.0625l-2.0625 -1.5q-2.71875 3.9375 -7.78125 6.46875l-2.15625 -1.59375q5.625 -2.34375 8.0625 -6.1875q-2.34375 -1.5 -4.59375 -2.7187576l1.125 -1.6875q2.90625 1.3125 4.78125 2.4375076q1.40625 -2.9062576 1.6875 -5.1562576l-6.84375 0q-1.78125 3.1875 -4.40625 5.8125076l-1.78125 -1.2187576q4.78125 -4.96875 6.28125 -10.5l2.25 0.9375q0.75 0.375 -0.375 0.75zm19.96875 8.0625l-9.375 0l0 -2.0625l19.21875 0l0 2.0625l-7.6875 0l0 1.2187576q0 5.90625 -4.21875 9.75l-1.875 -1.40625q3.9375 -3.09375 3.9375 -8.34375l0 -1.2187576zm-6.0 -5.71875l0 -2.0625l11.53125 0l0 2.0625l-11.53125 0zm12.75 -3.84375q1.21875 1.21875 2.625 3.28125l-1.3125 0.9375q-1.3125 -1.875 -2.625 -3.375l1.3125 -0.84375zm2.25 -1.21875q1.21875 1.3125 2.625 3.1875l-1.3125 0.9375q-1.5 -2.0625 -2.625 -3.1875l1.3125 -0.9375zm4.40625 12.468758l0 -2.0625076l20.90625 0l0 2.0625076l-20.90625 0zm31.125 -9.750008q-0.375 1.125 -0.9375 2.15625l6.28125 0l1.03125 -0.375l1.21875 1.21875q0.375 0.46875 -0.375 0.75q-0.75 3.75 -2.25 6.8437576l2.25 1.5l-1.40625 2.0625l-2.0625 -1.5q-2.71875 3.9375 -7.78125 6.46875l-2.15625 -1.59375q5.625 -2.34375 8.0625 -6.1875q-2.34375 -1.5 -4.59375 -2.7187576l1.125 -1.6875q2.90625 1.3125 4.78125 2.4375076q1.40625 -2.9062576 1.6875 -5.1562576l-6.84375 0q-1.78125 3.1875 -4.40625 5.8125076l-1.78125 -1.2187576q4.78125 -4.96875 6.28125 -10.5l2.25 0.9375q0.75 0.375 -0.375 0.75z" fill-rule="nonzero"/></g><g filter="url(#shadowFilter-gda153a51c1_0_53.2)"><use xlink:href="#gda153a51c1_0_53.2" transform="matrix(1.0 0.0 0.0 1.0 0.0 2.0)"/></g><defs><filter id="shadowFilter-gda153a51c1_0_53.2" filterUnits="userSpaceOnUse"><feGaussianBlur in="SourceAlpha" stdDeviation="2.0" result="blur"/><feComponentTransfer in="blur" color-interpolation-filters="sRGB"><feFuncR type="linear" slope="0" intercept="0.0"/><feFuncG type="linear" slope="0" intercept="0.0"/><feFuncB type="linear" slope="0" intercept="0.0"/><feFuncA type="linear" slope="0.5" intercept="0"/></feComponentTransfer></filter></defs><g id="gda153a51c1_0_53.2"><path fill="#e0e0e0" d="m381.87402 365.22308l196.25195 0l0 75.212616l-196.25195 0z" fill-rule="evenodd"/><path fill="#000000" d="m443.49973 411.3694l0 -19.4375l7.515625 0l0 1.9375l-4.8125 0l0 6.484375l3.71875 0l0 1.921875l-3.71875 0l0 9.09375l-2.703125 0zm7.868347 3.21875l0 -1.953125l8.25 0l0 1.953125l-8.25 0zm9.771606 -3.21875l0 -19.4375l2.703125 0l0 17.5l4.96875 0l0 1.9375l-7.671875 0zm8.465485 0l4.125 -19.4375l2.625 0l4.15625 19.4375l-2.578125 0l-0.890625 -4.890625l-3.953125 0l-0.9375 4.890625l-2.546875 0zm3.84375 -6.84375l3.234375 0l-1.625 -8.75l-1.609375 8.75zm9.026703 6.84375l0 -19.4375l4.453125 0q1.328125 0 2.296875 0.296875q0.96875 0.28125 1.609375 0.890625q0.65625 0.59375 0.96875 1.515625q0.3125 0.921875 0.3125 2.171875q0 1.1875 -0.296875 2.078125q-0.296875 0.875 -0.90625 1.375q-0.609375 0.5 -1.578125 0.640625q1.171875 0.265625 1.890625 0.90625q0.71875 0.640625 1.0625 1.640625q0.359375 0.984375 0.359375 2.375q0 1.25 -0.296875 2.28125q-0.28125 1.03125 -0.890625 1.75q-0.609375 0.71875 -1.5625 1.125q-0.953125 0.390625 -2.234375 0.390625l-5.1875 0zm2.703125 -1.9375l1.828125 0q1.828125 0 2.4375 -0.84375q0.609375 -0.859375 0.609375 -2.765625q0 -1.21875 -0.328125 -2.046875q-0.3125 -0.828125 -1.03125 -1.25q-0.703125 -0.421875 -1.90625 -0.421875l-1.609375 0l0 7.328125zm0 -9.390625l1.609375 0q1.15625 0 1.796875 -0.3125q0.65625 -0.328125 0.921875 -1.046875q0.265625 -0.734375 0.265625 -1.875q0 -1.34375 -0.421875 -1.9375q-0.40625 -0.609375 -1.265625 -0.765625q-0.859375 -0.15625 -2.25 -0.15625l-0.65625 0l0 6.09375zm14.575958 11.546875q-1.65625 0 -2.734375 -0.734375q-1.0625 -0.75 -1.578125 -2.046875q-0.515625 -1.296875 -0.515625 -2.953125l0 -8.375q0 -1.703125 0.5 -2.984375q0.515625 -1.296875 1.578125 -2.015625q1.0625 -0.71875 2.75 -0.71875q1.671875 0 2.734375 0.71875q1.0625 0.71875 1.5625 2.015625q0.5 1.28125 0.5 2.984375l0 8.375q0 1.671875 -0.515625 2.96875q-0.515625 1.296875 -1.578125 2.03125q-1.046875 0.734375 -2.703125 0.734375zm0 -2.109375q0.90625 0 1.375 -0.53125q0.46875 -0.53125 0.640625 -1.359375q0.1875 -0.828125 0.1875 -1.71875l0 -8.421875q0 -0.9375 -0.171875 -1.765625q-0.15625 -0.828125 -0.625 -1.328125q-0.46875 -0.5 -1.40625 -0.5q-0.9375 0 -1.421875 0.5q-0.484375 0.5 -0.65625 1.328125q-0.15625 0.828125 -0.15625 1.765625l0 8.421875q0 0.890625 0.171875 1.71875q0.1875 0.828125 0.671875 1.359375q0.5 0.53125 1.390625 0.53125zm12.361084 2.109375q-1.6874695 0 -2.75 -0.84375q-1.046875 -0.859375 -1.546875 -2.3125q-0.484375 -1.453125 -0.484375 -3.234375l0 -6.546875q0 -1.890625 0.421875 -3.453125q0.4375 -1.5625 1.484375 -2.5q1.0469055 -0.9375 2.875 -0.9375q1.515625 0 2.546875 0.5625q1.046875 0.546875 1.609375 1.609375q0.5625 1.046875 0.59375 2.5625q0 0.046875 0 0.140625q0.015625 0.078125 0.015625 0.140625l-2.578125 0q0 -1.421875 -0.46875 -2.15625q-0.453125 -0.75 -1.71875 -0.75q-0.7030945 0 -1.2030945 0.453125q-0.5 0.4375 -0.765625 1.359375q-0.25 0.90625 -0.25 2.34375l0 2.953125q0.390625 -0.59375 1.09375 -0.96875q0.71875 -0.375 1.7499695 -0.375q1.609375 0 2.515625 0.703125q0.90625 0.6875 1.28125 1.953125q0.390625 1.25 0.390625 2.953125q0 1.75 -0.484375 3.203125q-0.46875 1.4375 -1.53125 2.296875q-1.046875 0.84375 -2.796875 0.84375zm0 -2.140625q0.859375 0 1.328125 -0.484375q0.484375 -0.5 0.6875 -1.3125q0.21875 -0.8125 0.21875 -1.78125q0 -1.140625 -0.109375 -2.125q-0.109375 -0.984375 -0.578125 -1.578125q-0.453125 -0.59375 -1.546875 -0.59375q-0.5312195 0 -0.9687195 0.203125q-0.421875 0.1875 -0.734375 0.484375q-0.3125 0.296875 -0.515625 0.640625l0 2.90625q0 0.984375 0.203125 1.828125q0.21875 0.828125 0.6875 1.328125q0.484375 0.484375 1.3280945 0.484375z" fill-rule="nonzero"/></g><g filter="url(#shadowFilter-gda153a51c1_0_53.3)"><use xlink:href="#gda153a51c1_0_53.3" transform="matrix(1.0 0.0 0.0 1.0 0.0 2.0)"/></g><defs><filter id="shadowFilter-gda153a51c1_0_53.3" filterUnits="userSpaceOnUse"><feGaussianBlur in="SourceAlpha" stdDeviation="2.0" result="blur"/><feComponentTransfer in="blur" color-interpolation-filters="sRGB"><feFuncR type="linear" slope="0" intercept="0.0"/><feFuncG type="linear" slope="0" intercept="0.0"/><feFuncB type="linear" slope="0" intercept="0.0"/><feFuncA type="linear" slope="0.5" intercept="0"/></feComponentTransfer></filter></defs><g id="gda153a51c1_0_53.3"><path fill="#e0e0e0" d="m91.8294 365.22308l196.25195 0l0 75.212616l-196.25195 0z" fill-rule="evenodd"/><path fill="#000000" d="m156.31587 411.3694l0 -6.859375l-4.203125 -12.578125l2.53125 0l2.96875 9.375l2.9375 -9.375l2.53125 0l-4.171875 12.578125l0 6.859375l-2.59375 0zm7.0595856 3.21875l0 -1.953125l8.25 0l0 1.953125l-8.25 0zm9.771606 -3.21875l0 -19.4375l4.21875 0q2.15625 0 3.421875 0.65625q1.265625 0.65625 1.796875 1.984375q0.546875 1.3125 0.546875 3.28125l0 7.15625q0 2.0625 -0.546875 3.484375q-0.53125 1.40625 -1.75 2.140625q-1.21875 0.734375 -3.25 0.734375l-4.4375 0zm2.703125 -1.9375l1.546875 0q1.484375 0 2.109375 -0.578125q0.625 -0.578125 0.75 -1.671875q0.140625 -1.109375 0.140625 -2.671875l0 -6.3125q0 -1.515625 -0.203125 -2.453125q-0.1875 -0.9375 -0.84375 -1.359375q-0.640625 -0.4375 -2.03125 -0.4375l-1.46875 0l0 15.484375zm9.9448395 1.9375l0 -19.4375l7.53125 0l0 2.015625l-4.828125 0l0 6.4375l3.921875 0l0 1.90625l-3.921875 0l0 7.140625l4.875 0l0 1.9375l-7.578125 0zm13.142975 0l-4.34375 -19.4375l2.546875 0l3.078125 14.328125l2.921875 -14.328125l2.46875 0l-4.296875 19.4375l-2.375 0zm13.44809 0.21875q-1.65625 0 -2.734375 -0.734375q-1.0625 -0.75 -1.578125 -2.046875q-0.515625 -1.296875 -0.515625 -2.953125l0 -8.375q0 -1.703125 0.5 -2.984375q0.515625 -1.296875 1.578125 -2.015625q1.0625 -0.71875 2.75 -0.71875q1.671875 0 2.734375 0.71875q1.0625 0.71875 1.5625 2.015625q0.5 1.28125 0.5 2.984375l0 8.375q0 1.671875 -0.515625 2.96875q-0.515625 1.296875 -1.578125 2.03125q-1.046875 0.734375 -2.703125 0.734375zm0 -2.109375q0.90625 0 1.375 -0.53125q0.46875 -0.53125 0.640625 -1.359375q0.1875 -0.828125 0.1875 -1.71875l0 -8.421875q0 -0.9375 -0.171875 -1.765625q-0.15625 -0.828125 -0.625 -1.328125q-0.46875 -0.5 -1.40625 -0.5q-0.9375 0 -1.421875 0.5q-0.484375 0.5 -0.65625 1.328125q-0.15625 0.828125 -0.15625 1.765625l0 8.421875q0 0.890625 0.171875 1.71875q0.1875 0.828125 0.671875 1.359375q0.5 0.53125 1.390625 0.53125zm10.298584 1.890625l0 -16.078125q-0.03125 0.015625 -0.546875 0.140625q-0.515625 0.125 -1.171875 0.25q-0.640625 0.109375 -1.140625 0.203125q-0.5 0.09375 -0.53125 0.09375l0 -1.9375q0.40625 -0.09375 0.9375 -0.265625q0.546875 -0.171875 1.109375 -0.40625q0.578125 -0.234375 1.09375 -0.59375q0.515625 -0.359375 0.875 -0.84375l1.9375 0l0 19.4375l-2.5625 0z" fill-rule="nonzero"/></g><g filter="url(#shadowFilter-gda153a51c1_0_53.4)"><use xlink:href="#gda153a51c1_0_53.4" transform="matrix(1.0 0.0 0.0 1.0 0.0 2.0)"/></g><defs><filter id="shadowFilter-gda153a51c1_0_53.4" filterUnits="userSpaceOnUse"><feGaussianBlur in="SourceAlpha" stdDeviation="2.0" result="blur"/><feComponentTransfer in="blur" color-interpolation-filters="sRGB"><feFuncR type="linear" slope="0" intercept="0.0"/><feFuncG type="linear" slope="0" intercept="0.0"/><feFuncB type="linear" slope="0" intercept="0.0"/><feFuncA type="linear" slope="0.5" intercept="0"/></feComponentTransfer></filter></defs><g id="gda153a51c1_0_53.4"><path fill="#e0e0e0" d="m671.91864 365.22308l196.25195 0l0 75.212616l-196.25195 0z" fill-rule="evenodd"/><path fill="#000000" d="m737.7946 413.0569q-5.71875 -2.25 -7.96875 -7.78125q-1.59375 5.71875 -9.0 7.875l-1.03125 -1.96875q8.71875 -2.25 8.71875 -9.84375l0 -3.65625l-1.21875 0q-1.21875 2.4375 -3.46875 4.6875l-1.59375 -1.59375q3.65625 -3.65625 4.78125 -8.71875l2.15625 0.5625q0.375 0.28125 -0.28125 0.65625q-0.28125 0.84375 -0.9375 2.625l8.34375 0l0.375 -0.375l1.59375 1.3125q0.375 0.46875 -0.375 0.5625q-1.21875 3.0 -3.84375 6.65625l-1.59375 -1.40625q2.25 -2.8125 3.0 -4.96875l-4.78125 0l0 3.1875q0 6.65625 8.0625 9.9375l-0.9375 2.25zm-13.6875 -8.4375q-2.53125 2.8125 -5.25 4.6875q-0.1875 0.75 -0.46875 0.375l-1.3125 -1.96875q3.1875 -2.0625 5.71875 -4.59375l1.3125 1.5zm-2.71875 -5.71875q-1.40625 -1.59375 -3.375 -2.625l1.40625 -1.875q2.0625 0.9375 3.5625 2.4375l-1.59375 2.0625zm31.40625 -0.75q-1.59375 9.375 -3.84375 11.625q-1.21875 1.21875 -2.53125 1.21875q-1.5 0 -2.34375 -0.84375q-2.25 -2.25 -2.25 -5.625q0 -4.125 2.90625 -7.03125q3.1875 -3.1875 7.78125 -3.1875q4.125 0 6.46875 2.34375q2.625 2.625 2.625 6.1875q0 3.84375 -2.4375 6.28125q-1.59375 1.59375 -4.875 3.09375l-1.96875 -1.96875q3.28125 -1.03125 5.15625 -2.90625q1.78125 -1.78125 1.78125 -4.3125q0 -3.0 -1.96875 -4.96875q-1.96875 -1.96875 -6.1875 -1.78125l1.6875 0.84375q1.125 0.46875 0 1.03125zm-2.15625 -1.78125q-2.4375 0.5625 -4.21875 2.34375q-2.4375 2.4375 -2.4375 6.0q0 2.15625 1.40625 3.5625q0.28125 0.28125 0.84375 0.28125q0.5625 0 1.21875 -0.65625q2.15625 -2.15625 3.1875 -11.53125zm30.65625 2.15625q-1.78125 10.21875 -11.71875 14.625l-1.6875 -1.78125q9.1875 -3.75 11.0625 -12.9375l-7.5 0q-2.15625 3.5625 -4.5 5.71875l-1.875 -1.21875q4.875 -4.40625 6.28125 -10.3125l2.15625 0.75q0.5625 0.28125 -0.1875 0.5625q-0.375 1.21875 -1.03125 2.4375l6.75 0l0.84375 -0.46875l1.6875 1.6875q0.65625 0.65625 -0.28125 0.9375zm7.03125 12.9375q9.09375 -2.34375 10.21875 -9.84375l-14.25 0l0 -2.0625l14.34375 0l0.84375 -0.28125l1.6875 1.03125q0.5625 0.46875 -0.1875 0.84375q-1.5 9.375 -10.96875 12.1875l-1.6875 -1.875zm10.59375 -15.1875l-12.9375 0l0 -2.0625l12.9375 0l0 2.0625zm16.21875 6.5625q4.03125 3.09375 7.96875 7.125l-1.875 1.59375q-3.9375 -4.125 -7.59375 -6.9375q-3.65625 3.9375 -8.34375 7.03125l-1.78125 -1.59375q9.9375 -6.46875 12.75 -12.9375l-10.21875 0.65625l-0.28125 -2.25l10.875 -0.46875l1.125 -0.28125l1.5 1.5q0.65625 0.65625 -0.375 0.84375q-1.78125 3.09375 -3.75 5.71875z" fill-rule="nonzero"/></g><g filter="url(#shadowFilter-gda153a51c1_0_53.5)"><use xlink:href="#gda153a51c1_0_53.5" transform="matrix(1.0 0.0 0.0 1.0 0.0 2.0)"/></g><defs><filter id="shadowFilter-gda153a51c1_0_53.5" filterUnits="userSpaceOnUse"><feGaussianBlur in="SourceAlpha" stdDeviation="2.0" result="blur"/><feComponentTransfer in="blur" color-interpolation-filters="sRGB"><feFuncR type="linear" slope="0" intercept="0.0"/><feFuncG type="linear" slope="0" intercept="0.0"/><feFuncB type="linear" slope="0" intercept="0.0"/><feFuncA type="linear" slope="0.5" intercept="0"/></feComponentTransfer></filter></defs><g id="gda153a51c1_0_53.5"><path fill="#e0e0e0" d="m618.0243 205.5038l75.79529 75.79527l13.299194 -13.299194l0 53.19684l-53.19684 0l13.299194 -13.299194l-75.79529 -75.79529z" fill-rule="evenodd"/><path fill="#000000" d="m632.5389 257.4382q-1.0717163 -1.0716858 -1.1932373 -2.055008q-0.11047363 -0.9722748 0.48614502 -1.9445496q0.59661865 -0.9722748 1.6351929 -2.0108337l2.0108032 -2.0108337q1.093811 -1.093811 2.0550537 -1.6793823q0.9833374 -0.5855713 1.944519 -0.4419403q0.97229004 0.13258362 2.0219116 1.18219q0.9501343 0.95018005 1.1600952 1.7788239q0.22094727 0.83969116 -0.20996094 1.646225q-0.40875244 0.8065491 -1.3147583 1.7125244l-0.50823975 0.50823975l-1.458374 -1.4584045l0.5303345 -0.5303345q0.5745239 -0.5745239 0.8286133 -0.98332214q0.2541504 -0.40879822 0.19885254 -0.751297q-0.03314209 -0.34251404 -0.39770508 -0.70710754q-0.3977661 -0.39775085 -0.7955322 -0.41984558q-0.3866577 -0.03314209 -0.8838501 0.33145142q-0.49719238 0.36460876 -1.2263794 1.093811l-2.7510986 2.7510834q-1.1159058 1.1159058 -1.2816162 1.701477q-0.16577148 0.5855713 0.37561035 1.1269379q0.40881348 0.40881348 0.78448486 0.40881348q0.37561035 0 0.77337646 -0.28726196q0.40881348 -0.29830933 0.83966064 -0.7292023l0.7182007 -0.7181549l1.458374 1.4584045l-0.607666 0.607666q-0.87280273 0.87283325 -1.7235718 1.3037415q-0.8286133 0.4308777 -1.6793823 0.24304199q-0.850708 -0.18780518 -1.789856 -1.1269531zm4.088135 3.8450928l12.219727 -12.219681l1.6130981 1.6130829l-12.219727 12.219696l-1.6130981 -1.6130981zm5.5859985 5.829071q-0.972229 -0.97229004 -1.1490479 -1.9224548q-0.15466309 -0.9501648 0.33148193 -1.9003601q0.49719238 -0.96121216 1.4804688 -1.944519l2.5301514 -2.5301208q0.9833374 -0.9833374 1.9334717 -1.4694519q0.9612427 -0.49719238 1.9003906 -0.33148193q0.96118164 0.16574097 1.9334717 1.1380005q0.9612427 0.9612427 1.1159058 1.9114075q0.16571045 0.93911743 -0.33148193 1.9003601q-0.48614502 0.9501648 -1.4694214 1.9334717l-2.5301514 2.5301208q-0.98327637 0.9833374 -1.944519 1.4805298q-0.9501953 0.4861145 -1.9003296 0.33145142q-0.93914795 -0.16574097 -1.9003906 -1.1269531zm1.1932373 -1.1932373q0.4640503 0.46401978 0.9170532 0.38668823q0.4640503 -0.088378906 0.93914795 -0.49719238q0.49719238 -0.40878296 0.972229 -0.8838806l2.729004 -2.7289734q0.49719238 -0.49719238 0.8949585 -0.9833374q0.40875244 -0.47509766 0.49719238 -0.93911743q0.088378906 -0.4640503 -0.3756714 -0.92807007q-0.47509766 -0.47509766 -0.9501953 -0.3977661q-0.4640503 0.088409424 -0.9501343 0.48614502q-0.47509766 0.40878296 -0.97229004 0.90597534l-2.729004 2.729004q-0.47509766 0.47506714 -0.89489746 0.96121216q-0.3977661 0.48614502 -0.48614502 0.9501648q-0.06628418 0.4640503 0.40875244 0.93914795zm2.9403076 5.0837097l8.717346 -8.717285l1.6130981 1.6130676l-0.8618164 0.8617859q0.8397217 0.022125244 1.6572876 0.26516724q0.8175659 0.24307251 1.4473267 0.87283325q0.5303345 0.5303345 0.5303345 1.0827637q0.022094727 0.5524292 -0.27618408 1.0717163q-0.29833984 0.5192871 -0.71813965 0.93911743l-7.0600586 7.060028l-1.6130981 -1.6130981l6.5960083 -6.595978q0.4640503 -0.46401978 0.5745239 -0.8617859q0.121520996 -0.38668823 -0.2982788 -0.8065491q-0.26519775 -0.26516724 -0.7182007 -0.40878296q-0.45300293 -0.14364624 -0.9501343 -0.17678833l-7.0269165 7.026886l-1.6130981 -1.6130981zm8.907776 9.150818q-1.0275269 -1.0274963 -1.1932373 -1.988739q-0.15466309 -0.9501648 0.3977661 -1.9445496q0.5745239 -0.99435425 1.701477 -2.1213074l1.9997559 -1.9997864q1.1600952 -1.1600952 2.1434326 -1.701477q1.0054321 -0.54138184 1.9555664 -0.3645935q0.9612427 0.16571045 1.9556274 1.1600952q1.1048584 1.1048584 1.1711426 2.077118q0.06628418 0.97229004 -0.6187134 1.988739q-0.6850586 1.0164795 -1.8782959 2.2097168l-0.7070923 0.7070923l-3.4360962 -3.4360962l-1.7567139 1.7567139q-0.5192871 0.5192871 -0.7623291 0.93914795q-0.23205566 0.4308777 -0.17681885 0.81759644q0.066345215 0.37564087 0.40881348 0.71813965q0.36462402 0.3645935 0.71813965 0.38668823q0.36462402 0.011047363 0.7513428 -0.24304199q0.40875244 -0.25411987 0.850708 -0.69607544l0.5192871 -0.5192871l1.5689087 1.5689087l-0.33148193 0.33145142q-1.3037109 1.3037415 -2.6295166 1.502594q-1.303772 0.19888306 -2.6516724 -1.1490479zm4.364197 -6.286621l1.8561401 1.8561707l0.7844238 -0.78445435q0.54138184 -0.54138184 0.8397217 -0.9722595q0.32037354 -0.4309082 0.32037354 -0.8065491q0 -0.3756714 -0.40875244 -0.78445435q-0.3977661 -0.3977356 -0.7955322 -0.41983032q-0.37561035 -0.022125244 -0.8838501 0.33145142q-0.49719238 0.3645935 -1.2485352 1.1159058l-0.46398926 0.46401978z" fill-rule="nonzero"/></g><g filter="url(#shadowFilter-gda153a51c1_0_53.6)"><use xlink:href="#gda153a51c1_0_53.6" transform="matrix(1.0 0.0 0.0 1.0 0.0 2.0)"/></g><defs><filter id="shadowFilter-gda153a51c1_0_53.6" filterUnits="userSpaceOnUse"><feGaussianBlur in="SourceAlpha" stdDeviation="2.0" result="blur"/><feComponentTransfer in="blur" color-interpolation-filters="sRGB"><feFuncR type="linear" slope="0" intercept="0.0"/><feFuncG type="linear" slope="0" intercept="0.0"/><feFuncB type="linear" slope="0" intercept="0.0"/><feFuncA type="linear" slope="0.5" intercept="0"/></feComponentTransfer></filter></defs><g id="gda153a51c1_0_53.6"><path fill="#e0e0e0" d="m341.97705 205.5038l-75.79529 75.79527l-13.29921 -13.299194l0 53.19684l53.196854 0l-13.299225 -13.299194l75.79529 -75.79529z" fill-rule="evenodd"/><path fill="#000000" d="m304.81696 280.0837q-1.0716858 1.0716858 -2.0550232 1.1932373q-0.9722595 0.11047363 -1.9445496 -0.48614502q-0.9722595 -0.59661865 -2.0108337 -1.6351929l-2.0108337 -2.0108337q-1.093811 -1.093811 -1.6793823 -2.0550232q-0.5855713 -0.9833069 -0.44192505 -1.9445496q0.13256836 -0.9722595 1.18219 -2.021881q0.9501648 -0.9501648 1.7788086 -1.1600952q0.83969116 -0.22097778 1.6462402 0.20993042q0.8065491 0.40878296 1.7125244 1.3147583l0.50823975 0.50823975l-1.4584045 1.4584045l-0.5303345 -0.5303345q-0.5745239 -0.5745239 -0.9833374 -0.8286133q-0.40878296 -0.25411987 -0.75128174 -0.19888306q-0.3425293 0.03314209 -0.7071228 0.3977356q-0.3977356 0.3977661 -0.41983032 0.7955017q-0.03314209 0.38668823 0.33145142 0.8838806q0.3645935 0.49719238 1.093811 1.2263794l2.751068 2.7510986q1.1159058 1.1159058 1.701477 1.2816467q0.5855713 0.16571045 1.1269531 -0.3756714q0.40881348 -0.40878296 0.40881348 -0.78445435q0 -0.37564087 -0.28726196 -0.77337646q-0.29830933 -0.40881348 -0.7292175 -0.83969116l-0.71813965 -0.71817017l1.4584045 -1.4584045l0.607666 0.607666q0.87283325 0.87283325 1.3037109 1.7235718q0.4309082 0.8286438 0.24307251 1.6793823q-0.18780518 0.8507385 -1.1269531 1.7898865zm3.8450928 -4.0881653l-12.219696 -12.219696l1.6130981 -1.6130981l12.219696 12.219696l-1.6130981 1.6130981zm5.829071 -5.5859985q-0.97229004 0.97229004 -1.9224548 1.1490479q-0.9501648 0.1546936 -1.9003601 -0.33145142q-0.96121216 -0.49719238 -1.9445496 -1.4804993l-2.5300903 -2.5301208q-0.9833374 -0.9833069 -1.4694824 -1.9335022q-0.49716187 -0.96121216 -0.33145142 -1.9003296q0.16574097 -0.9612427 1.1380005 -1.9335022q0.9612427 -0.9612427 1.9114075 -1.1159058q0.93911743 -0.16574097 1.9003601 0.33145142q0.9501648 0.48614502 1.9334717 1.4694519l2.5301208 2.5301208q0.9833374 0.9833374 1.4804993 1.9445496q0.48614502 0.9501648 0.33148193 1.9003601q-0.16574097 0.93911743 -1.1269531 1.9003296zm-1.1932678 -1.1932373q0.4640503 -0.4640503 0.38671875 -0.9170227q-0.088409424 -0.4640503 -0.49719238 -0.93914795q-0.40878296 -0.49716187 -0.8838806 -0.9722595l-2.729004 -2.7289734q-0.49716187 -0.49719238 -0.9833069 -0.8949585q-0.47509766 -0.40878296 -0.93911743 -0.49716187q-0.4640503 -0.088409424 -0.9281006 0.37564087q-0.47506714 0.47509766 -0.3977356 0.9501648q0.088378906 0.4640503 0.48614502 0.9501953q0.40878296 0.47506714 0.90597534 0.9722595l2.7289734 2.729004q0.47509766 0.47506714 0.9612427 0.894928q0.48614502 0.3977356 0.9501648 0.4861145q0.4640503 0.0663147 0.93911743 -0.40878296zm5.08374 -2.9403076l-8.717285 -8.717316l1.6130676 -1.6130829l0.8617859 0.86180115q0.022094727 -0.83969116 0.26516724 -1.6572876q0.24307251 -0.81759644 0.87283325 -1.4473572q0.5303345 -0.5303345 1.0827637 -0.5303345q0.5524292 -0.022094727 1.0717163 0.2762146q0.5192871 0.29830933 0.93911743 0.7181549l7.060028 7.060013l-1.6130981 1.6130981l-6.595978 -6.595978q-0.4640503 -0.4640503 -0.8617859 -0.5745392q-0.38668823 -0.121520996 -0.8065491 0.29832458q-0.26516724 0.26516724 -0.40878296 0.71813965q-0.14364624 0.45300293 -0.17678833 0.9501953l7.026886 7.0268555l-1.6130981 1.6130981zm9.150818 -8.907745q-1.0275269 1.0274963 -1.988739 1.1932373q-0.9501648 0.15466309 -1.9445496 -0.3977356q-0.99435425 -0.5745239 -2.1213074 -1.701477l-1.9997864 -1.9998016q-1.1600952 -1.1600952 -1.701477 -2.1434174q-0.54138184 -1.0054169 -0.3645935 -1.9555969q0.16571045 -0.96121216 1.1600952 -1.9555817q1.1048584 -1.1048584 2.077118 -1.1711426q0.9722595 -0.06629944 1.988739 0.6187134q1.016449 0.6850128 2.2097168 1.8782501l0.7070923 0.70710754l-3.4360962 3.4360962l1.7567139 1.7567139q0.5192871 0.51927185 0.93914795 0.76234436q0.4308777 0.23202515 0.8175659 0.17678833q0.3756714 -0.06628418 0.71817017 -0.40878296q0.3645935 -0.36460876 0.38668823 -0.71817017q0.011047363 -0.36460876 -0.24307251 -0.751297q-0.25408936 -0.40879822 -0.6960449 -0.8507385l-0.5192871 -0.5192871l1.5689087 -1.5688934l0.33145142 0.33146667q1.3037109 1.3037262 1.502594 2.629547q0.19888306 1.3037262 -1.1490479 2.651657zm-6.286621 -4.3641815l1.8561707 -1.8561554l-0.78445435 -0.78445435q-0.54138184 -0.5413666 -0.97229004 -0.8396759q-0.4308777 -0.3204193 -0.80651855 -0.3204193q-0.3756714 0 -0.78445435 0.40879822q-0.3977661 0.39775085 -0.41986084 0.7955017q-0.022094727 0.37564087 0.33145142 0.8838806q0.36462402 0.49717712 1.1159058 1.2484894l0.4640503 0.46403503z" fill-rule="nonzero"/></g><g filter="url(#shadowFilter-gda153a51c1_0_53.7)"><use xlink:href="#gda153a51c1_0_53.7" transform="matrix(1.0 0.0 0.0 1.0 0.0 2.0)"/></g><defs><filter id="shadowFilter-gda153a51c1_0_53.7" filterUnits="userSpaceOnUse"><feGaussianBlur in="SourceAlpha" stdDeviation="2.0" result="blur"/><feComponentTransfer in="blur" color-interpolation-filters="sRGB"><feFuncR type="linear" slope="0" intercept="0.0"/><feFuncG type="linear" slope="0" intercept="0.0"/><feFuncB type="linear" slope="0" intercept="0.0"/><feFuncA type="linear" slope="0.5" intercept="0"/></feComponentTransfer></filter></defs><g id="gda153a51c1_0_53.7"><path fill="#e0e0e0" d="m461.18796 193.04541l0 107.19684l-18.811035 0l37.62207 37.62207l37.62204 -37.62207l-18.811035 0l0 -107.19684z" fill-rule="evenodd"/><path fill="#000000" d="m487.65085 272.0621q0 1.515625 -0.609375 2.296875q-0.609375 0.765625 -1.71875 1.03125q-1.109375 0.265625 -2.578125 0.265625l-2.84375 0q-1.546875 0 -2.640625 -0.265625q-1.109375 -0.28125 -1.6875 -1.0625q-0.59375 -0.78125 -0.59375 -2.265625q0 -1.34375 0.4375 -2.078125q0.4375 -0.75 1.3125 -1.015625q0.859375 -0.28125 2.140625 -0.28125l0.71875 0l0 2.0625l-0.75 0q-0.8125 0 -1.28125 0.109375q-0.46875 0.109375 -0.671875 0.390625q-0.21875 0.265625 -0.21875 0.78125q0 0.5625 0.265625 0.859375q0.25 0.296875 0.859375 0.390625q0.609375 0.09375 1.640625 0.09375l3.890625 0q1.578125 0 2.109375 -0.296875q0.53125 -0.296875 0.53125 -1.0625q0 -0.578125 -0.265625 -0.84375q-0.265625 -0.265625 -0.75 -0.34375q-0.5 -0.078125 -1.109375 -0.078125l-1.015625 0l0 -2.0625l0.859375 0q1.234375 0 2.140625 0.296875q0.890625 0.28125 1.359375 1.015625q0.46875 0.734375 0.46875 2.0625zm-0.171875 -5.6096497l-17.28125 0l0 -2.28125l17.28125 0l0 2.28125zm0.171875 -8.071655q0 1.375 -0.546875 2.171875q-0.5625 0.78125 -1.578125 1.109375q-1.03125 0.328125 -2.421875 0.328125l-3.578125 0q-1.390625 0 -2.40625 -0.328125q-1.03125 -0.328125 -1.578125 -1.109375q-0.5625 -0.796875 -0.5625 -2.171875q0 -1.359375 0.5625 -2.140625q0.546875 -0.78123474 1.578125 -1.1093597q1.015625 -0.328125 2.40625 -0.328125l3.578125 0q1.390625 0 2.421875 0.328125q1.015625 0.328125 1.578125 1.1093597q0.546875 0.78125 0.546875 2.140625zm-1.6875 0q0 -0.65625 -0.375 -0.921875q-0.390625 -0.265625 -1.015625 -0.3125q-0.640625 -0.0625 -1.3125 -0.0625l-3.859375 0q-0.703125 0 -1.328125 0.0625q-0.625 0.046875 -1.015625 0.3125q-0.390625 0.265625 -0.390625 0.921875q0 0.671875 0.390625 0.953125q0.390625 0.265625 1.015625 0.328125q0.625 0.046875 1.328125 0.046875l3.859375 0q0.671875 0 1.3125 -0.046875q0.625 -0.0625 1.015625 -0.328125q0.375 -0.28125 0.375 -0.953125zm1.515625 -5.6738434l-12.328125 0l0 -2.28125l1.21875 0q-0.578125 -0.609375 -0.984375 -1.359375q-0.40625 -0.75 -0.40625 -1.640625q0 -0.75 0.390625 -1.140625q0.375 -0.40625 0.953125 -0.5625q0.578125 -0.15625 1.171875 -0.15625l9.984375 0l0 2.28125l-9.328125 0q-0.65625 0 -1.015625 0.203125q-0.359375 0.1875 -0.359375 0.78125q0 0.375 0.21875 0.796875q0.21875 0.421875 0.546875 0.796875l9.9375 0l0 2.28125zm0.171875 -12.769333q0 1.453125 -0.5625 2.25q-0.5625 0.78125 -1.65625 1.09375q-1.109375 0.296875 -2.703125 0.296875l-2.828125 0q-1.640625 0 -2.71875 -0.3125q-1.09375 -0.328125 -1.640625 -1.125q-0.5625 -0.796875 -0.5625 -2.203125q0 -1.5625 0.640625 -2.296875q0.640625 -0.734375 1.84375 -0.96875q1.203125 -0.234375 2.890625 -0.234375l1.0 0l0 4.859375l2.484375 0q0.734375 0 1.203125 -0.125q0.46875 -0.140625 0.703125 -0.453125q0.21875 -0.3125 0.21875 -0.796875q0 -0.515625 -0.234375 -0.78125q-0.25 -0.265625 -0.703125 -0.359375q-0.46875 -0.109375 -1.09375 -0.109375l-0.734375 0l0 -2.21875l0.46875 0q1.84375 0 2.921875 0.796875q1.0625 0.78125 1.0625 2.6875zm-7.53125 1.359375l0 -2.625l-1.109375 0q-0.765625 0 -1.28125 0.09375q-0.53125 0.078125 -0.796875 0.34375q-0.265625 0.265625 -0.265625 0.84375q0 0.5625 0.265625 0.859375q0.25 0.28125 0.859375 0.390625q0.609375 0.09375 1.671875 0.09375l0.65625 0z" fill-rule="nonzero"/></g><g filter="url(#shadowFilter-gda153a51c1_0_53.8)"><use xlink:href="#gda153a51c1_0_53.8" transform="matrix(1.0 0.0 0.0 1.0 0.0 2.0)"/></g><defs><filter id="shadowFilter-gda153a51c1_0_53.8" filterUnits="userSpaceOnUse"><feGaussianBlur in="SourceAlpha" stdDeviation="2.0" result="blur"/><feComponentTransfer in="blur" color-interpolation-filters="sRGB"><feFuncR type="linear" slope="0" intercept="0.0"/><feFuncG type="linear" slope="0" intercept="0.0"/><feFuncB type="linear" slope="0" intercept="0.0"/><feFuncA type="linear" slope="0.5" intercept="0"/></feComponentTransfer></filter></defs><g id="gda153a51c1_0_53.8"><path fill="#f5f5f5" d="m654.54596 68.52231l36.986877 0l0 0l55.480286 0l129.45404 0l0 61.989502l0 0l0 26.566925l0 17.711288l-129.45404 0l-55.480286 0l0 0l-36.986877 0l0 -17.711288l-38.862854 -27.19107l38.862854 0.6241455z" fill-rule="evenodd"/><path stroke="#ffffff" stroke-width="1.0" stroke-linejoin="round" stroke-linecap="butt" d="m654.54596 68.52231l36.986877 0l0 0l55.480286 0l129.45404 0l0 61.989502l0 0l0 26.566925l0 17.711288l-129.45404 0l-55.480286 0l0 0l-36.986877 0l0 -17.711288l-38.862854 -27.19107l38.862854 0.6241455z" fill-rule="evenodd"/><path fill="#000000" d="m685.4324 90.919914l1.703125 0.4375q0.296875 0.296875 -0.21875 0.375l-0.96875 1.40625l4.078125 0l0 5.125l-6.75 0l0 1.484375l7.5 0l0 5.5625l-1.484375 0l0 -0.515625l-6.015625 0l0 0.671875l-1.484375 0l0 -12.328125l2.59375 0l1.046875 -2.21875zm-10.390625 15.4375q1.703125 -0.53125 2.96875 -1.34375l0 -4.828125l-2.53125 0l0 -1.40625l4.015625 0l0 6.09375q1.25 1.328125 4.0 1.328125l8.609375 0l-0.21875 1.421875l-9.125 0q-2.609375 0 -3.9375 -1.5q-1.5625 1.5 -2.96875 2.09375l-0.8125 -1.859375zm13.5 -9.5l0 -2.3125l-5.265625 0l0 2.3125l5.265625 0zm0.75 6.53125l0 -2.234375l-6.015625 0l0 2.234375l6.015625 0zm-10.46875 -7.71875q-1.34375 -1.640625 -2.59375 -2.609375l1.109375 -1.25q1.5625 0.953125 2.75 2.59375l-1.265625 1.265625zm32.203125 8.53125l-0.296875 1.625q-0.296875 1.640625 -1.703125 1.640625l-4.828125 0q-1.328125 0 -1.328125 -1.265625l0 -8.15625l5.484375 0l0 -4.15625l-5.859375 0l0 -1.421875l7.34375 0l0 8.09375l-1.484375 0l0 -1.109375l-4.0 0l0 6.015625q0 0.59375 0.515625 0.59375l3.640625 0q0.4375 0 0.515625 -0.53125l0.296875 -1.84375l1.703125 0.515625zm-15.875 -2.234375l6.015625 0l0 6.015625l-1.484375 0l0 -0.8125l-3.046875 0l0 0.96875l-1.484375 0l0 -6.171875zm1.484375 1.1875l0 2.828125l3.046875 0l0 -2.828125l-3.046875 0zm4.078125 -3.703125l0 1.40625l-5.265625 0l0 -1.40625l5.265625 0zm-6.609375 -5.046875l8.09375 0l0 1.40625l-8.09375 0l0 -1.40625zm6.609375 2.515625l0 1.421875l-5.265625 0l0 -1.421875l5.265625 0zm0 -4.96875l0 1.40625l-5.265625 0l0 -1.40625l5.265625 0zm18.78125 10.09375q3.109375 -0.8125 5.125 -2.59375l1.03125 1.03125q0.21875 0.375 -0.375 0.296875q-2.296875 1.859375 -5.34375 2.53125l-0.4375 -1.265625zm-2.078125 -10.09375q-0.296875 1.78125 -1.1875 4.015625l0.21875 0.0625q0.296875 0.15625 -0.140625 0.453125l0 11.578125l-1.484375 0l0 -9.203125q-0.671875 1.03125 -1.34375 1.78125l-0.8125 -1.265625q2.671875 -3.109375 3.34375 -8.15625l1.625 0.359375q0.296875 0.296875 -0.21875 0.375zm1.40625 4.3125l0 8.96875l-1.484375 0l0 -11.34375l1.40625 0q0.59375 0.0625 0.078125 0.4375l0 1.78125q2.671875 -2.296875 3.484375 -5.046875l1.34375 0.453125q0.296875 0.296875 -0.21875 0.359375q-0.234375 0.75 -0.671875 1.421875l6.453125 0l0 1.40625l-1.78125 0q-0.890625 1.78125 -2.15625 2.8125q1.78125 1.125 5.046875 1.71875l-0.4375 1.484375q-3.71875 -0.828125 -5.5 -2.3125q-1.703125 1.421875 -4.75 2.375l-0.65625 -1.328125q2.96875 -0.890625 4.21875 -1.9375q-1.1875 -1.1875 -1.78125 -2.140625q-0.59375 0.8125 -1.78125 1.84375l-0.8125 -0.953125zm0.453125 10.53125q5.78125 -0.59375 9.125 -4.296875l1.109375 1.109375q0.375 0.375 -0.375 0.296875q-3.78125 3.71875 -9.5 4.234375l-0.359375 -1.34375zm8.15625 -4.59375q0.296875 0.4375 -0.296875 0.296875q-2.453125 2.078125 -6.53125 3.265625l-0.515625 -1.34375q3.78125 -0.96875 6.3125 -3.265625l1.03125 1.046875zm-3.1875 -5.421875q1.03125 -0.890625 1.625 -2.078125l-3.40625 0q0.4375 0.96875 1.78125 2.078125zm8.6875 -3.9375l14.90625 0l0 1.40625l-6.15625 0l0 4.609375l4.828125 0l0 1.40625l-4.828125 0l0 5.265625l6.6875 0l0 1.421875l-15.96875 0l0 -1.421875l2.75 0l0 -8.3125l1.640625 0q0.59375 0.078125 0.0625 0.453125l0 7.859375l3.125 0l0 -11.28125l-7.046875 0l0 -1.40625zm30.875 11.0625q-3.203125 3.484375 -6.90625 3.484375q-2.671875 0 -3.9375 -1.265625q-0.96875 -0.953125 -0.96875 -3.703125l0 -9.953125l1.5625 0q0.671875 0.15625 0.15625 0.59375l0 9.359375q0 1.859375 0.65625 2.515625q0.828125 0.828125 2.453125 0.828125q2.890625 0 5.859375 -3.265625l1.125 1.40625zm16.984375 1.703125l0 1.640625l-3.265625 0q-2.8125 0 -5.34375 -1.34375l0.671875 -1.328125q1.9375 1.03125 4.671875 1.03125l3.265625 0zm-10.234375 -8.6875q-1.109375 6.609375 -2.75 10.46875l-1.625 -0.515625q2.0 -4.671875 2.8125 -9.796875q-1.78125 0.140625 -3.1875 0.140625l-0.296875 -1.484375q2.078125 0 3.703125 -0.140625q0.296875 -2.296875 0.53125 -4.015625l1.484375 0.296875q0.8125 0.234375 0.140625 0.59375q-0.21875 0.890625 -0.59375 2.96875q1.703125 -0.21875 3.125 -0.59375l0.296875 1.484375q-1.9375 0.375 -3.640625 0.59375zm9.875 2.53125q-4.3125 0.140625 -6.765625 1.1875l-0.4375 -1.484375q3.1875 -1.265625 6.90625 -1.265625l0.296875 1.5625zm9.9375 3.40625q-0.671875 1.71875 -1.40625 2.609375q-1.046875 1.265625 -2.078125 1.265625q-1.859375 0 -2.75 -2.15625q-0.515625 -1.265625 -0.515625 -5.421875q0 -2.96875 0.296875 -6.015625l1.5625 0.375q0.890625 0.21875 0.0625 0.734375q-0.296875 2.75 -0.296875 4.984375q0 3.03125 0.375 4.296875q0.375 1.265625 1.109375 1.265625q0.828125 0 1.421875 -1.1875q0.359375 -0.75 0.734375 -1.78125l1.484375 1.03125zm4.375 -8.671875q3.34375 3.484375 4.09375 8.453125l-2.015625 0.515625q-0.890625 -5.1875 -3.625 -8.078125l1.546875 -0.890625zm10.1796875 8.078125l1.84375 -0.65625l0.375 0.953125q1.703125 -1.109375 2.53125 -2.59375l-2.96875 0l0 -1.40625l11.203125 0l0 1.40625l-6.75 0q-0.296875 0.59375 -0.59375 0.96875l6.890625 0l-0.4375 5.421875q-0.15625 1.703125 -1.484375 1.703125l-1.78125 0l-0.21875 -1.40625l1.40625 0q0.515625 0 0.59375 -0.53125l0.375 -3.78125l-0.828125 0q-1.328125 5.046875 -7.484375 6.09375l-0.453125 -1.40625q5.265625 -0.96875 6.453125 -4.6875l-1.25 0q-1.34375 3.1875 -4.984375 3.859375l-0.4375 -1.1875q2.96875 -0.734375 3.9375 -2.671875l-1.125 0q-1.546875 1.40625 -2.4375 1.859375l-0.59375 -1.109375l-4.6875 1.84375q-0.0625 0.53125 -0.359375 0.234375l-0.59375 -1.640625l2.375 -0.671875l0 -5.640625l-2.3125 0l0 -1.40625l2.3125 0l0 -4.234375l1.40625 0q0.59375 0.078125 0.078125 0.453125l0 3.78125l2.21875 0l0 1.40625l-2.21875 0l0 5.046875zm3.265625 -4.59375l0 -6.015625l7.78125 0l0 6.015625l-7.78125 0zm1.484375 -3.484375l4.8125 0l0 -1.34375l-4.8125 0l0 1.34375zm0 2.296875l4.8125 0l0 -1.109375l-4.8125 0l0 1.109375zm19.4375 -4.3125q2.890625 3.640625 7.640625 5.125l-0.734375 1.703125q-5.046875 -1.84375 -7.9375 -5.859375q-1.34375 2.75 -3.71875 4.375l8.234375 0l0 1.421875l-8.3125 0l0 -1.34375q-1.328125 1.109375 -3.109375 1.9375l-1.046875 -1.421875q5.421875 -2.515625 7.125 -6.75l1.9375 0.375q0.515625 0.078125 -0.078125 0.4375zm-4.671875 15.890625l-1.484375 0l0 -7.34375l11.0625 0l0 7.125l-1.484375 0l0 -0.8125l-8.09375 0l0 1.03125zm0 -2.453125l8.09375 0l0 -3.484375l-8.09375 0l0 3.484375zm27.234375 -8.53125q0.15625 2.8125 0 5.640625q2.234375 0.8125 4.3125 2.296875l-0.890625 1.40625q-1.5625 -1.1875 -3.421875 -2.078125q0 1.34375 -0.8125 2.15625q-0.890625 0.890625 -2.59375 0.890625q-1.71875 0 -2.609375 -0.890625q-0.734375 -0.734375 -0.734375 -1.921875q0 -1.046875 0.59375 -1.640625q0.890625 -0.890625 2.671875 -0.890625q0.96875 0 1.921875 0.21875q0.15625 -2.515625 0 -5.109375l-5.484375 0.359375l0 -1.546875l5.34375 -0.296875q-0.078125 -2.078125 -0.296875 -3.71875l1.5625 0q0.8125 0.15625 0.140625 0.59375q0.078125 1.5625 0.15625 3.046875l4.0 -0.21875l0 1.546875l-3.859375 0.15625zm-11.203125 9.953125q-0.296875 -2.09375 -0.296875 -4.828125q0 -6.015625 0.890625 -9.65625l1.625 0.296875q0.53125 0.21875 -0.0625 0.515625q-0.828125 2.609375 -0.828125 8.84375q0 2.8125 0.375 4.53125l-1.703125 0.296875zm9.640625 -3.28125q-1.25 -0.359375 -1.921875 -0.359375q-1.046875 0 -1.484375 0.4375q-0.375 0.375 -0.375 0.75q0 0.59375 0.296875 0.890625q0.515625 0.515625 1.5625 0.515625q1.03125 0 1.484375 -0.515625q0.515625 -0.59375 0.4375 -1.71875z" fill-rule="nonzero"/><path fill="#000000" d="m694.6726 124.56054q1.546875 1.484375 2.515625 2.609375l-1.484375 1.3281326q-2.8125 -3.3437576 -6.453125 -6.0156326l1.03125 -1.328125q1.34375 0.8125 2.96875 2.296875q2.234375 -2.21875 4.53125 -5.484375l-11.65625 0.515625l-0.296875 -1.859375l13.0 -0.296875l0.734375 -0.21875l1.109375 1.1875q0.375 0.59375 -0.296875 0.515625q-1.84375 2.453125 -5.703125 6.75zm17.144531 -2.734375q3.1875 2.4375 6.296875 5.640625l-1.484375 1.2656326q-3.109375 -3.2812576 -6.0 -5.5000076q-2.90625 3.109375 -6.609375 5.5625076l-1.40625 -1.2656326q7.859375 -5.109375 10.09375 -10.234375l-8.09375 0.515625l-0.21875 -1.78125l8.609375 -0.375l0.890625 -0.21875l1.1875 1.1875q0.515625 0.515625 -0.296875 0.671875q-1.421875 2.453125 -2.96875 4.53125zm14.472656 -7.0625q-0.296875 0.890625 -0.75 1.71875l4.96875 0l0.828125 -0.296875l0.953125 0.953125q0.296875 0.375 -0.296875 0.59375q-0.59375 2.96875 -1.78125 5.421875l1.78125 1.1875l-1.109375 1.640625l-1.625 -1.1875q-2.15625 3.109375 -6.171875 5.1250076l-1.703125 -1.265625q4.453125 -1.8593826 6.390625 -4.9062576q-1.859375 -1.1875 -3.640625 -2.15625l0.890625 -1.328125q2.296875 1.03125 3.78125 1.921875q1.109375 -2.296875 1.34375 -4.078125l-5.421875 0q-1.40625 2.53125 -3.484375 4.609375l-1.421875 -0.96875q3.796875 -3.9375 4.984375 -8.3125l1.78125 0.734375q0.59375 0.296875 -0.296875 0.59375zm17.515625 3.34375q-1.265625 7.421875 -3.046875 9.203125q-0.96875 0.9687576 -2.0 0.9687576q-1.1875 0 -1.859375 -0.6718826q-1.78125 -1.78125 -1.78125 -4.453125q0 -3.265625 2.296875 -5.5625q2.53125 -2.53125 6.15625 -2.53125q3.265625 0 5.125 1.859375q2.078125 2.078125 2.078125 4.90625q0 3.03125 -1.921875 4.96875q-1.265625 1.2656326 -3.859375 2.4531326l-1.5625 -1.5625076q2.59375 -0.8125 4.078125 -2.296875q1.40625 -1.421875 1.40625 -3.421875q0 -2.375 -1.546875 -3.9375q-1.5625 -1.546875 -4.90625 -1.40625l1.34375 0.671875q0.890625 0.375 0 0.8125zm-1.71875 -1.40625q-1.921875 0.4375 -3.328125 1.859375q-1.9375 1.921875 -1.9375 4.75q0 1.703125 1.109375 2.8125q0.234375 0.21875 0.671875 0.21875q0.453125 0 0.96875 -0.515625q1.703125 -1.703125 2.515625 -9.125zm21.96875 5.34375q0 5.5625 -5.1875 8.015633l-1.484375 -1.265625q4.890625 -2.2187576 4.96875 -6.8281326l0 -7.421875l1.5625 0q0.734375 0.15625 0.140625 0.59375l0 6.90625zm-7.640625 1.625l-1.703125 0l0 -8.375l1.625 0q0.75 0.0625 0.078125 0.59375l0 7.78125zm25.753906 -7.5625q0.59375 0 0.96875 -0.375q0.375 -0.375 0.375 -0.96875q0 -0.59375 -0.375 -0.953125q-0.375 -0.375 -0.96875 -0.375q-0.59375 0 -0.96875 0.375q-0.359375 0.359375 -0.359375 0.953125q0 0.59375 0.359375 0.96875q0.375 0.375 0.96875 0.375zm0 0.734375q-0.890625 0 -1.484375 -0.59375q-0.59375 -0.59375 -0.59375 -1.484375q0 -0.890625 0.59375 -1.484375q0.59375 -0.59375 1.484375 -0.59375q0.890625 0 1.484375 0.59375q0.59375 0.59375 0.59375 1.484375q0 0.890625 -0.59375 1.484375q-0.59375 0.59375 -1.484375 0.59375zm-2.515625 4.15625q2.671875 2.828125 4.0 5.203125l-1.625 1.109375q-1.5625 -2.75 -3.796875 -5.125l1.421875 -1.1875zm-3.5625 -3.1875l6.828125 0l0 1.640625l-6.828125 0l0 10.312508l-1.71875 0l0 -10.312508l-6.671875 0l0 -1.640625l6.671875 0l0 -4.15625l1.5625 0q0.8125 0.15625 0.15625 0.59375l0 3.5625zm-3.9375 4.078125q0.4375 0.375 -0.296875 0.53125q-1.109375 2.4375 -2.828125 5.109375l-1.625 -0.890625q1.859375 -2.671875 3.109375 -5.640625l1.640625 0.890625zm28.71875 -1.546875q-3.78125 6.078125 -11.71875 8.609383q-0.234375 0.890625 -0.75 0.078125l-1.03125 -1.6406326q8.078125 -1.78125 12.171875 -8.390625l1.328125 1.34375zm-11.421875 2.0q-2.234375 -1.640625 -3.71875 -2.375l1.109375 -1.5625q1.859375 0.96875 3.796875 2.375l-1.1875 1.5625zm2.21875 -4.375q-2.0 -1.421875 -3.703125 -2.375l0.953125 -1.5625q2.015625 1.109375 3.796875 2.375l-1.046875 1.5625zm6.15625 -5.046875q1.265625 0.953125 2.53125 2.296875l-0.96875 0.96875q-1.328125 -1.484375 -2.515625 -2.375l0.953125 -0.890625zm-1.78125 1.25q1.265625 1.046875 2.53125 2.375l-0.96875 0.890625q-1.265625 -1.328125 -2.59375 -2.4375l1.03125 -0.828125zm9.9453125 5.5q3.640625 1.03125 7.359375 2.8125l-0.890625 1.71875q-3.9375 -2.015625 -6.46875 -2.671875l0 7.7187576l-1.703125 0l0 -14.843758l1.484375 0q0.890625 0.0625 0.21875 0.59375l0 4.671875zm19.742188 2.375q0 5.5625 -5.1875 8.015633l-1.484375 -1.265625q4.890625 -2.2187576 4.96875 -6.8281326l0 -7.421875l1.5625 0q0.734375 0.15625 0.140625 0.59375l0 6.90625zm-7.640625 1.625l-1.703125 0l0 -8.375l1.625 0q0.75 0.0625 0.078125 0.59375l0 7.78125zm23.003906 4.015625q-3.484375 0 -5.78125 -2.234375l0.96875 -1.25q2.0 1.921875 4.8125 1.84375l4.09375 0l0 1.640625l-4.09375 0zm-10.609375 1.4062576q-0.21875 -3.8593826 -0.21875 -6.6093826q0 -3.328125 0.8125 -7.9375l1.484375 0.375q0.8125 0.140625 0.078125 0.671875q-0.75 4.296875 -0.75 6.890625q0 2.90625 0.296875 6.4687576l-1.703125 0.140625zm13.734375 -10.984383q-3.1875 -0.078125 -8.3125 0.453125l0 -1.5625q5.34375 -0.515625 8.3125 -0.453125l0 1.5625z" fill-rule="nonzero"/><path fill="#000000" d="m690.2384 150.57617l0 -10.78125l2.0 0l0 10.78125l-2.0 0zm0 -12.390625l0 -2.09375l2.0 0l0 2.09375l-2.0 0zm6.631653 12.546875q-1.3125 0 -2.125 -0.828125q-0.796875 -0.84375 -0.90625 -2.203125l1.65625 -0.5q0.15625 1.03125 0.5 1.546875q0.359375 0.5 1.046875 0.5q0.546875 0 0.828125 -0.296875q0.28125 -0.3125 0.28125 -0.84375q0 -0.453125 -0.21875 -0.828125q-0.203125 -0.375 -0.65625 -0.765625l-1.859375 -1.59375q-0.546875 -0.484375 -0.9375 -1.078125q-0.375 -0.59375 -0.375 -1.546875q0 -0.859375 0.34375 -1.4375q0.34375 -0.59375 0.96875 -0.90625q0.625 -0.3125 1.453125 -0.3125q1.296875 0 1.96875 0.84375q0.6875 0.828125 0.78125 2.0l-1.34375 0.5q-0.078125 -0.5625 -0.234375 -0.984375q-0.140625 -0.421875 -0.40625 -0.640625q-0.25 -0.234375 -0.6875 -0.234375q-0.484375 0 -0.78125 0.328125q-0.28125 0.3125 -0.28125 0.765625q0 0.28125 0.125 0.5625q0.125 0.265625 0.421875 0.515625l1.90625 1.765625q0.390625 0.34375 0.734375 0.765625q0.34375 0.40625 0.5625 0.9375q0.234375 0.515625 0.234375 1.203125q0 0.90625 -0.375 1.53125q-0.375 0.609375 -1.046875 0.921875q-0.671875 0.3125 -1.578125 0.3125zm6.977478 0q-1.3125 0 -2.125 -0.828125q-0.796875 -0.84375 -0.90625 -2.203125l1.65625 -0.5q0.15625 1.03125 0.5 1.546875q0.359375 0.5 1.046875 0.5q0.546875 0 0.828125 -0.296875q0.28125 -0.3125 0.28125 -0.84375q0 -0.453125 -0.21875 -0.828125q-0.203125 -0.375 -0.65625 -0.765625l-1.859375 -1.59375q-0.546875 -0.484375 -0.9375 -1.078125q-0.375 -0.59375 -0.375 -1.546875q0 -0.859375 0.34375 -1.4375q0.34375 -0.59375 0.96875 -0.90625q0.625 -0.3125 1.453125 -0.3125q1.296875 0 1.96875 0.84375q0.6875 0.828125 0.78125 2.0l-1.34375 0.5q-0.078125 -0.5625 -0.234375 -0.984375q-0.140625 -0.421875 -0.40625 -0.640625q-0.25 -0.234375 -0.6875 -0.234375q-0.484375 0 -0.78125 0.328125q-0.28125 0.3125 -0.28125 0.765625q0 0.28125 0.125 0.5625q0.125 0.265625 0.421875 0.515625l1.90625 1.765625q0.390625 0.34375 0.734375 0.765625q0.34375 0.40625 0.5625 0.9375q0.234375 0.515625 0.234375 1.203125q0 0.90625 -0.375 1.53125q-0.375 0.609375 -1.046875 0.921875q-0.671875 0.3125 -1.578125 0.3125zm6.039917 0q-0.640625 0 -1.0 -0.328125q-0.34375 -0.34375 -0.484375 -0.84375q-0.140625 -0.515625 -0.140625 -1.03125l0 -8.734375l1.984375 0l0 8.125q0 0.578125 0.171875 0.90625q0.171875 0.328125 0.6875 0.328125q0.34375 0 0.703125 -0.1875q0.359375 -0.203125 0.703125 -0.484375l0 -8.6875l2.0 0l0 10.78125l-2.0 0l0 -1.0625q-0.515625 0.5 -1.1875 0.859375q-0.65625 0.359375 -1.4375 0.359375zm9.64624 0q-1.28125 0 -1.96875 -0.5q-0.6875 -0.5 -0.96875 -1.453125q-0.265625 -0.96875 -0.265625 -2.359375l0 -2.46875q0 -1.4375 0.28125 -2.390625q0.28125 -0.953125 0.984375 -1.4375q0.703125 -0.484375 1.9375 -0.484375q1.359375 0 2.0 0.5625q0.640625 0.5625 0.84375 1.625q0.203125 1.046875 0.203125 2.515625l0 0.875l-4.25 0l0 2.171875q0 0.65625 0.125 1.0625q0.125 0.40625 0.390625 0.609375q0.265625 0.1875 0.703125 0.1875q0.4375 0 0.671875 -0.203125q0.234375 -0.21875 0.3125 -0.625q0.09375 -0.40625 0.09375 -0.9375l0 -0.65625l1.9375 0l0 0.40625q0 1.625 -0.6875 2.5625q-0.6875 0.9375 -2.34375 0.9375zm-1.203125 -6.59375l2.296875 0l0 -0.96875q0 -0.671875 -0.078125 -1.125q-0.078125 -0.46875 -0.3125 -0.6875q-0.21875 -0.234375 -0.734375 -0.234375q-0.484375 0 -0.734375 0.21875q-0.25 0.21875 -0.34375 0.75q-0.09375 0.53125 -0.09375 1.46875l0 0.578125z" fill-rule="nonzero"/><path fill="#000000" d="m741.0599 149.5293l0 1.640625l-16.484375 0l0 -1.640625l8.90625 0q1.5625 -4.21875 2.234375 -8.53125l2.078125 0.671875q0.296875 0.296875 -0.234375 0.375q-0.8125 3.78125 -2.375 7.484375l5.875 0zm-11.875 -8.15625q1.109375 2.15625 1.921875 6.234375l-1.703125 0.515625q-0.96875 -4.078125 -1.78125 -6.15625l1.5625 -0.59375zm2.671875 -5.9375l1.625 0q0.75 0.140625 0.078125 0.59375l0 2.515625l6.53125 0l0 1.640625l-14.546875 0l0 -1.640625l6.3125 0l0 -3.109375zm26.5625 3.484375q-2.59375 0 -4.078125 0.515625q-1.640625 0.59375 -3.046875 2.015625q-1.40625 1.40625 -1.40625 3.625q0 1.78125 1.109375 2.90625q1.484375 1.484375 5.71875 1.625l-0.59375 1.640625q-4.375 -0.21875 -6.09375 -1.9375q-1.703125 -1.703125 -1.703125 -4.15625q0 -3.484375 2.75 -5.484375q-3.484375 0.515625 -7.125 1.03125l-0.453125 -1.703125q7.28125 -0.515625 14.625 -1.78125l0.296875 1.703125zm17.144531 0q-2.59375 0 -4.078125 0.515625q-1.640625 0.59375 -3.046875 2.015625q-1.40625 1.40625 -1.40625 3.625q0 1.78125 1.109375 2.90625q1.484375 1.484375 5.71875 1.625l-0.59375 1.640625q-4.375 -0.21875 -6.09375 -1.9375q-1.703125 -1.703125 -1.703125 -4.15625q0 -3.484375 2.75 -5.484375q-3.484375 0.515625 -7.125 1.03125l-0.453125 -1.703125q7.28125 -0.515625 14.625 -1.78125l0.296875 1.703125zm15.363281 -1.109375q0.59375 0 0.96875 -0.375q0.375 -0.375 0.375 -0.96875q0 -0.59375 -0.375 -0.953125q-0.375 -0.375 -0.96875 -0.375q-0.59375 0 -0.96875 0.375q-0.359375 0.359375 -0.359375 0.953125q0 0.59375 0.359375 0.96875q0.375 0.375 0.96875 0.375zm0 0.734375q-0.890625 0 -1.484375 -0.59375q-0.59375 -0.59375 -0.59375 -1.484375q0 -0.890625 0.59375 -1.484375q0.59375 -0.59375 1.484375 -0.59375q0.890625 0 1.484375 0.59375q0.59375 0.59375 0.59375 1.484375q0 0.890625 -0.59375 1.484375q-0.59375 0.59375 -1.484375 0.59375zm-13.28125 0.96875l0 -1.625l10.984375 0l1.921875 1.40625q-0.359375 8.984375 -10.15625 11.734375l-1.34375 -1.640625q9.28125 -2.15625 9.71875 -9.875l-11.125 0zm26.945312 8.90625q3.265625 -1.265625 6.0 -5.046875l1.046875 1.40625q-2.828125 3.859375 -7.125 5.578125l-0.59375 0.296875l-1.1875 -0.890625l0.140625 -0.375l0 -11.953125l1.5625 0q0.671875 0.15625 0.15625 0.59375l0 10.390625zm-9.953125 2.0q3.71875 -3.5625 3.71875 -8.828125l0 -3.34375l1.546875 0q0.671875 0.15625 0.15625 0.59375l0 2.671875q0 6.234375 -3.9375 9.875l-1.484375 -0.96875zm29.3125 -6.375q0 5.5625 -5.1875 8.015625l-1.484375 -1.265625q4.890625 -2.21875 4.96875 -6.828125l0 -7.421875l1.5625 0q0.734375 0.15625 0.140625 0.59375l0 6.90625zm-7.640625 1.625l-1.703125 0l0 -8.375l1.625 0q0.75 0.0625 0.078125 0.59375l0 7.78125zm24.128906 -5.265625q-1.421875 8.09375 -9.28125 11.578125l-1.34375 -1.40625q7.28125 -2.96875 8.765625 -10.25l-5.9375 0q-1.703125 2.828125 -3.5625 4.53125l-1.484375 -0.96875q3.859375 -3.484375 4.96875 -8.15625l1.703125 0.59375q0.453125 0.21875 -0.140625 0.4375q-0.296875 0.96875 -0.8125 1.9375l5.34375 0l0.65625 -0.375l1.34375 1.34375q0.515625 0.515625 -0.21875 0.734375z" fill-rule="nonzero"/></g><g filter="url(#shadowFilter-gda153a51c1_0_53.9)"><use xlink:href="#gda153a51c1_0_53.9" transform="matrix(1.0 0.0 0.0 1.0 0.0 2.0)"/></g><defs><filter id="shadowFilter-gda153a51c1_0_53.9" filterUnits="userSpaceOnUse"><feGaussianBlur in="SourceAlpha" stdDeviation="2.0" result="blur"/><feComponentTransfer in="blur" color-interpolation-filters="sRGB"><feFuncR type="linear" slope="0" intercept="0.0"/><feFuncG type="linear" slope="0" intercept="0.0"/><feFuncB type="linear" slope="0" intercept="0.0"/><feFuncA type="linear" slope="0.5" intercept="0"/></feComponentTransfer></filter></defs><g id="gda153a51c1_0_53.9"><path fill="#f5f5f5" d="m14.545932 212.52231l129.45407 0l0 0l55.480316 0l36.986877 0l0 61.989502l0 0l0 26.566925l0 17.711304l-36.986877 0l-27.481247 27.118439l-27.99907 -27.118439l-129.45407 0l0 -17.711304l0 -26.566925l0 0z" fill-rule="evenodd"/><path stroke="#ffffff" stroke-width="1.0" stroke-linejoin="round" stroke-linecap="butt" d="m14.545932 212.52231l129.45407 0l0 0l55.480316 0l36.986877 0l0 61.989502l0 0l0 26.566925l0 17.711304l-36.986877 0l-27.481247 27.118439l-27.99907 -27.118439l-129.45407 0l0 -17.711304l0 -26.566925l0 0z" fill-rule="evenodd"/><path fill="#000000" d="m68.32492 240.4043q1.328125 -1.1875 2.078125 -2.515625l-4.234375 0q0.296875 0.890625 2.15625 2.515625zm3.34375 -4.234375l1.25 0.96875l-0.515625 0.375q-1.03125 1.859375 -2.96875 3.78125q2.53125 1.9375 7.28125 2.890625l-0.59375 1.71875q-5.28125 -1.421875 -7.796875 -3.640625q-1.9375 1.625 -4.453121 2.890625l9.343746 0l0 6.90625l-1.484375 0l0 -0.59375l-6.59375 0l0 0.8125l-1.4843712 0l0 -6.96875q-1.421875 0.734375 -3.046875 1.25l-0.75 -1.703125q3.71875 -0.890625 7.281246 -3.5625q-1.703125 -1.78125 -2.078125 -2.59375q-1.6406212 2.515625 -4.234371 3.78125l-0.671875 -1.484375q4.015621 -2.078125 5.124996 -6.078125l1.34375 0.4375q0.4375 0.21875 -0.078125 0.375l-0.453125 0.96875l5.125 0l0.453125 -0.53125zm0.0625 13.890625l0 -3.5l-6.59375 0l0 3.5l6.59375 0zm19.828125 -9.65625q-1.421875 8.09375 -9.28125 11.578125l-1.34375 -1.40625q7.28125 -2.96875 8.765625 -10.25l-5.9375 0q-1.703125 2.828125 -3.5625 4.53125l-1.484375 -0.96875q3.859375 -3.484375 4.96875 -8.15625l1.703125 0.59375q0.453125 0.21875 -0.140625 0.4375q-0.296875 0.96875 -0.8125 1.9375l5.34375 0l0.65625 -0.375l1.34375 1.34375q0.515625 0.515625 -0.21875 0.734375zm5.5546875 10.25q7.203125 -1.859375 8.09375 -7.796875l-11.28125 0l0 -1.640625l11.359375 0l0.671875 -0.21875l1.328125 0.8125q0.453125 0.375 -0.140625 0.671875q-1.1875 7.421875 -8.6875 9.65625l-1.34375 -1.484375zm8.390625 -12.03125l-10.234375 0l0 -1.625l10.234375 0l0 1.625zm12.847656 5.203125q3.1875 2.4375 6.296875 5.640625l-1.484375 1.265625q-3.109375 -3.28125 -6.0 -5.5q-2.90625 3.109375 -6.609375 5.5625l-1.40625 -1.265625q7.859375 -5.109375 10.09375 -10.234375l-8.09375 0.515625l-0.21875 -1.78125l8.609375 -0.375l0.890625 -0.21875l1.1875 1.1875q0.515625 0.515625 -0.296875 0.671875q-1.421875 2.453125 -2.96875 4.53125zm19.878906 5.859375q-3.484375 0 -5.78125 -2.234375l0.96875 -1.25q2.0 1.921875 4.8125 1.84375l4.09375 0l0 1.640625l-4.09375 0zm-10.609375 1.40625q-0.21875 -3.859375 -0.21875 -6.609375q0 -3.328125 0.8125 -7.9375l1.484375 0.375q0.8125 0.140625 0.078125 0.671875q-0.75 4.296875 -0.75 6.890625q0 2.90625 0.296875 6.46875l-1.703125 0.140625zm13.734375 -10.984375q-3.1875 -0.078125 -8.3125 0.453125l0 -1.5625q5.34375 -0.515625 8.3125 -0.453125l0 1.5625zm16.621094 10.015625q-3.40625 -1.921875 -5.484375 -2.4375q-0.078125 1.921875 -0.890625 2.734375q-1.125 1.125 -3.203125 1.125q-1.78125 0 -2.671875 -0.890625q-0.8125 -0.828125 -0.8125 -1.9375q0 -1.109375 0.96875 -2.078125q0.890625 -0.890625 2.96875 -0.890625q1.328125 0 2.15625 0.15625q-0.234375 -4.015625 -0.59375 -9.796875l1.484375 0q0.65625 0.140625 0.140625 0.59375q0 1.1875 0.15625 3.625q2.0 0.078125 5.640625 -0.4375l0 1.5625q-2.609375 0.359375 -5.5 0.4375q0.15625 2.234375 0.15625 4.234375q2.8125 0.671875 6.234375 2.453125l-0.75 1.546875zm-7.046875 -2.8125q-1.109375 -0.21875 -2.0 -0.21875q-1.484375 0 -2.078125 0.59375q-0.53125 0.515625 -0.53125 1.03125q0 0.515625 0.375 0.890625q0.515625 0.515625 1.78125 0.515625q1.1875 0 1.703125 -0.515625q0.75 -0.734375 0.75 -2.296875zm14.761719 -4.3125q-1.78125 0.59375 -4.15625 1.5625l-0.734375 -1.5625q2.375 -0.734375 4.296875 -1.328125q2.15625 -0.671875 4.09375 -0.671875q1.921875 0 3.109375 1.1875q1.265625 1.265625 1.265625 3.125q0 2.21875 -1.109375 3.328125q-2.015625 2.015625 -6.765625 2.15625l-0.59375 -1.5625q4.6875 -0.0625 6.171875 -1.546875q0.8125 -0.828125 0.8125 -2.375q0 -1.265625 -1.046875 -2.3125q-0.59375 -0.59375 -2.078125 -0.59375q-1.40625 0 -3.265625 0.59375zm25.460938 -4.078125q-2.59375 0 -4.078125 0.515625q-1.640625 0.59375 -3.046875 2.015625q-1.40625 1.40625 -1.40625 3.625q0 1.78125 1.109375 2.90625q1.484375 1.484375 5.71875 1.625l-0.59375 1.640625q-4.375 -0.21875 -6.09375 -1.9375q-1.703125 -1.703125 -1.703125 -4.15625q0 -3.484375 2.75 -5.484375q-3.484375 0.515625 -7.125 1.03125l-0.453125 -1.703125q7.28125 -0.515625 14.625 -1.78125l0.296875 1.703125z" fill-rule="nonzero"/><path fill="#000000" d="m51.02805 270.04492q1.34375 -0.890625 2.078125 -1.84375l-3.703125 0q0.515625 1.03125 1.625 1.84375zm-1.328125 -3.03125l4.15625 0l0.21875 -0.375l1.265625 0.890625q0.359375 0.296875 -0.15625 0.375q-1.109375 1.546875 -2.96875 2.96875q2.078125 1.1875 6.53125 1.546875l-0.515625 1.640625q-4.53125 -0.375 -7.28125 -2.234375q-4.078125 2.234375 -7.78125 2.609375l-0.59375 -1.5625q4.0 -0.375 7.1875 -2.078125q-0.59375 -0.59375 -1.40625 -1.78125q-2.296875 2.078125 -4.296875 2.59375l-0.75 -1.265625q3.78125 -1.25 5.640625 -4.59375l1.1875 0.4375q0.375 0.234375 -0.140625 0.296875l-0.296875 0.53125zm3.265625 -2.234375q0 1.265625 -1.125 1.265625l-1.03125 0l-0.375 -1.40625l0.8125 0q0.234375 0 0.234375 -0.234375l0 -3.625l-1.859375 0l0 1.546875q0 4.234375 -5.125 5.5l-0.671875 -1.40625q4.3125 -0.96875 4.3125 -4.09375l0 -1.546875l-5.640625 0l0 -1.421875l7.125 0l0 -2.21875l1.625 0q0.75 0.140625 0.078125 0.59375l0 1.625l7.125 0l0 1.421875l-5.484375 0l0 4.0zm-10.25 -0.734375q1.859375 -0.96875 3.046875 -2.53125l1.328125 1.046875q0.234375 0.296875 -0.296875 0.296875q-1.109375 1.546875 -3.1875 2.59375l-0.890625 -1.40625zm11.953125 -2.453125q2.21875 1.1875 3.5625 2.59375l-1.265625 1.484375q-1.703125 -1.703125 -3.34375 -2.75l1.046875 -1.328125zm22.859371 12.765625q-5.859375 -0.515625 -9.203125 -2.375q-1.859375 1.5625 -6.609371 2.453125l-0.515625 -1.5625q4.374996 -0.75 5.781246 -1.859375q-0.953125 -0.8125 -1.921875 -2.078125l1.328125 -0.515625q0.59375 0.734375 1.640625 1.5625q0.59375 -0.96875 0.671875 -2.15625l-3.859375 0l0 0.59375l-1.4843712 0l0 -7.578125l5.406246 0l0 -1.546875l-7.484371 0l0 -1.421875l16.031246 0l0 1.421875l-7.0625 0l0 1.546875l5.5 0l0 7.875l-1.484375 0l0 -0.890625l-4.078125 0q-0.078125 1.484375 -0.890625 2.890625q2.515625 1.484375 8.453125 2.015625l-0.21875 1.625zm-12.6875 -12.328125l0 1.71875l3.921875 0l0 -1.71875l-3.921875 0zm5.40625 0l0 1.71875l4.015625 0l0 -1.71875l-4.015625 0zm0 4.609375l4.015625 0l0 -1.703125l-4.015625 0l0 1.703125zm-1.484375 0l0 -1.703125l-3.921875 0l0 1.703125l3.921875 0zm23.828125 -5.9375q3.046875 3.109375 4.15625 7.5l-1.625 0.65625q-1.34375 -4.8125 -3.859375 -7.1875l1.328125 -0.96875zm-2.21875 5.9375q0 4.296875 -1.265625 5.5625q-0.75 0.75 -1.703125 0.75q-1.421875 0 -2.828125 -1.640625l0.96875 -1.328125q1.1875 1.1875 1.78125 1.1875q0.375 0 0.671875 -0.296875q0.8125 -0.828125 0.8125 -4.53125q0 -2.078125 -0.453125 -2.53125q-0.21875 -0.21875 -0.890625 -0.21875q-0.65625 0 -1.84375 0.15625q-1.5625 5.484375 -3.71875 9.421875l-1.703125 -0.59375q2.15625 -3.34375 3.78125 -8.6875q-1.625 0.21875 -3.1875 0.375l-0.15625 -1.640625q1.34375 0 3.71875 -0.21875q0.671875 -2.296875 1.109375 -4.671875l1.5625 0.515625q0.890625 0.375 -0.078125 0.671875q-0.4375 1.5625 -0.890625 3.34375q0.890625 -0.15625 1.859375 -0.15625q1.03125 0 1.5625 0.515625q0.890625 0.890625 0.890625 4.015625zm4.15625 -9.796875q1.328125 0.734375 2.96875 2.078125l-0.890625 0.890625q-1.640625 -1.265625 -2.96875 -2.078125l0.890625 -0.890625zm0.515625 4.75q-1.703125 -1.40625 -2.890625 -2.15625l0.890625 -0.890625q1.328125 0.75 2.96875 2.078125l-0.96875 0.96875zm18.109375 -2.234375q-3.125 7.203125 -8.015625 11.4375l0 0.734375q0 0.59375 0.515625 0.59375l4.453125 0q0.671875 0 0.8125 -0.734375l0.53125 -2.15625l1.703125 0.375l-0.59375 2.375q-0.453125 1.78125 -1.703125 1.78125l-5.875 0q-1.328125 0 -1.328125 -1.265625l0 -0.671875q-1.78125 1.265625 -3.78125 2.15625l-0.890625 -1.703125q2.375 -0.8125 4.671875 -2.59375l0 -8.546875l1.40625 0q0.75 0.15625 0.078125 0.59375l0 6.765625q4.234375 -4.234375 6.375 -9.875l1.640625 0.734375zm0.140625 4.6875q2.015625 2.734375 2.90625 5.40625l-1.78125 0.828125q-1.046875 -2.96875 -2.609375 -5.34375l1.484375 -0.890625zm-10.90625 -0.671875q0.59375 0.21875 -0.078125 0.515625q-0.4375 3.9375 -1.484375 6.390625l-1.78125 -0.671875q1.265625 -2.59375 1.71875 -6.75l1.625 0.515625zm2.96875 -5.859375q2.453125 1.03125 4.015625 2.59375l-1.046875 1.484375q-1.625 -1.5625 -3.859375 -2.671875l0.890625 -1.40625zm22.421875 14.390625q-2.53125 1.859375 -8.6875 2.375l-0.296875 -1.40625q5.125 -0.296875 7.421875 -1.484375q-1.703125 -0.453125 -3.34375 -0.75l-0.4375 0.53125l-1.34375 -0.75l2.0 -2.21875l-5.109375 0l0 -1.1875l6.078125 0l1.1875 -1.640625l-3.9375 0l0 0.515625l-1.25 0l0 -4.96875l3.859375 0l0 -1.625l-5.5 0l0 -1.1875l15.953125 0l0 1.1875l-5.484375 0l0 1.625l3.859375 0l0 4.90625l-1.265625 0l0 -0.453125l-5.5625 0l0.734375 0.375q0.375 0.21875 -0.21875 0.375l-0.734375 0.890625l9.203125 0l0 1.1875l-3.796875 0q-0.890625 1.484375 -2.140625 2.671875q2.375 0.65625 5.109375 1.921875l-0.953125 1.34375q-2.234375 -1.1875 -5.34375 -2.234375zm-2.828125 -3.703125l-1.265625 1.40625q1.71875 0.21875 3.796875 0.734375q1.1875 -0.890625 1.84375 -2.140625l-4.375 0zm0.21875 -8.90625l0 1.625l2.453125 0l0 -1.625l-2.453125 0zm-3.859375 4.890625l2.609375 0l0 -2.078125l-2.609375 0l0 2.078125zm3.859375 -2.078125l0 2.078125l2.453125 0l0 -2.078125l-2.453125 0zm3.71875 0l0 2.078125l2.59375 0l0 -2.078125l-2.59375 0zm19.140625 2.078125q0.828125 0.15625 0.15625 0.59375l0 4.3125q1.859375 0.59375 3.859375 1.625l-0.890625 1.40625q-1.640625 -0.953125 -2.96875 -1.40625q-0.21875 1.5625 -0.96875 2.3125q-0.890625 0.890625 -2.453125 0.890625q-2.078125 0 -2.890625 -0.828125q-0.734375 -0.734375 -0.734375 -1.921875q0 -0.96875 0.734375 -1.71875q0.96875 -0.953125 2.828125 -0.953125q1.25 0 2.0 0.21875l0 -4.53125l1.328125 0zm-7.9375 -1.78125q-1.1875 0.15625 -2.96875 0.15625l-0.21875 -1.5625q1.859375 0 3.703125 -0.15625q0.375 -1.328125 0.890625 -3.5625l1.34375 0.453125q0.734375 0.296875 0 0.59375l-0.671875 2.375q1.265625 -0.15625 2.59375 -0.515625l0.375 1.546875q-2.078125 0.453125 -3.40625 0.53125q-1.1875 3.78125 -3.5 8.234375l-1.484375 -0.75q2.3125 -4.078125 3.34375 -7.34375zm7.125 -2.21875q2.078125 0.65625 4.96875 1.78125l-0.65625 1.546875q-3.125 -1.328125 -4.90625 -1.84375l0.59375 -1.484375zm-0.515625 9.9375q-0.890625 -0.296875 -2.0 -0.296875q-1.1875 0 -1.640625 0.453125q-0.375 0.359375 -0.375 0.890625q0 0.515625 0.296875 0.8125q0.453125 0.4375 1.5625 0.4375q1.046875 0 1.484375 -0.4375q0.671875 -0.671875 0.671875 -1.859375zm15.144531 -8.6875q1.484375 -1.40625 2.078125 -4.296875l1.40625 0.21875q0.296875 0.21875 -0.15625 0.453125l-0.359375 1.25l5.78125 0l0 1.1875l-3.640625 0l0.828125 1.265625l-1.484375 0.375l-0.75 -1.640625l-1.1875 0q-0.671875 1.265625 -1.40625 2.078125l-1.109375 -0.890625zm6.296875 11.140625l0 -8.765625l-11.046875 0l0 8.765625l11.046875 0zm-6.15625 -8.46875l1.1875 0q0.59375 0.078125 0.078125 0.453125l0 0.734375l4.0 0l0 1.1875l-4.0 0l0 1.34375l2.890625 0l0 3.703125l-1.265625 0l0 -0.359375l-4.515625 0l0 0.59375l-1.265625 0l0 -3.9375l2.890625 0l0 -1.34375l-4.078125 0l0 -1.1875l4.078125 0l0 -1.1875zm-1.5625 -2.515625l-1.40625 0.4375l-0.671875 -1.78125l-1.1875 0q-1.109375 1.640625 -2.078125 2.53125l-0.953125 -1.046875q2.140625 -2.078125 2.734375 -4.515625l1.421875 0.21875q0.296875 0.140625 -0.15625 0.4375l-0.4375 1.1875l4.8125 0l0 1.1875l-2.8125 0l0.734375 1.34375zm7.71875 12.390625l0 -0.21875l-11.046875 0l0 0.453125l-1.265625 0l0 -11.59375l13.578125 0l0 11.359375l-1.265625 0zm-7.78125 -3.703125l4.515625 0l0 -1.5625l-4.515625 0l0 1.5625zm23.078125 -11.4375q3.265625 -0.515625 4.890625 -1.265625l0.828125 1.421875q0.296875 0.65625 -0.453125 0.296875q-2.75 0.59375 -5.1875 0.8125l0 3.109375l6.53125 0l0 1.421875l-2.453125 0l0 9.34375l-1.484375 0l0 -9.34375l-2.59375 0l0 2.296875q0 4.890625 -3.5625 7.28125l-1.125 -1.34375q3.203125 -1.9375 3.203125 -6.09375l0 -8.453125l1.40625 0.515625zm-2.828125 2.671875l0 6.453125l-1.484375 0l0 -0.734375l-3.328125 0l0 2.078125q0 2.8125 -1.1875 4.75l-1.34375 -1.03125q1.046875 -1.5 1.046875 -3.796875l0 -7.71875l6.296875 0zm-1.484375 4.3125l0 -2.90625l-3.328125 0l0 2.90625l3.328125 0zm-5.40625 -6.3125l0 -1.40625l7.421875 0l0 1.40625l-7.421875 0zm31.015625 3.5625q0.15625 2.8125 0 5.640625q2.234375 0.8125 4.3125 2.296875l-0.890625 1.40625q-1.5625 -1.1875 -3.421875 -2.078125q0 1.34375 -0.8125 2.15625q-0.890625 0.890625 -2.59375 0.890625q-1.71875 0 -2.609375 -0.890625q-0.734375 -0.734375 -0.734375 -1.921875q0 -1.046875 0.59375 -1.640625q0.890625 -0.890625 2.671875 -0.890625q0.96875 0 1.921875 0.21875q0.15625 -2.515625 0 -5.109375l-5.484375 0.359375l0 -1.546875l5.34375 -0.296875q-0.078125 -2.078125 -0.296875 -3.71875l1.5625 0q0.8125 0.15625 0.140625 0.59375q0.078125 1.5625 0.15625 3.046875l4.0 -0.21875l0 1.546875l-3.859375 0.15625zm-11.203125 9.953125q-0.296875 -2.09375 -0.296875 -4.828125q0 -6.015625 0.890625 -9.65625l1.625 0.296875q0.53125 0.21875 -0.0625 0.515625q-0.828125 2.609375 -0.828125 8.84375q0 2.8125 0.375 4.53125l-1.703125 0.296875zm9.640625 -3.28125q-1.25 -0.359375 -1.921875 -0.359375q-1.046875 0 -1.484375 0.4375q-0.375 0.375 -0.375 0.75q0 0.59375 0.296875 0.890625q0.515625 0.515625 1.5625 0.515625q1.03125 0 1.484375 -0.515625q0.515625 -0.59375 0.4375 -1.71875z" fill-rule="nonzero"/><path fill="#000000" d="m54.301487 289.9668q-0.375 -1.546875 -1.9375 -3.40625l1.34375 -4.609375l-2.234375 0l0 14.265625l-1.484375 0l0 -15.671875l4.078125 0l0.15625 -0.375l1.5625 1.046875l-0.296875 0.21875l-1.640625 4.828125q1.640625 1.703125 2.0 3.109375q1.125 4.53125 -1.78125 4.53125l-1.25 0l-0.296875 -1.625l1.109375 0q1.1875 0 0.671875 -2.3125zm-7.578125 -7.265625q0.671875 -0.96875 1.40625 -2.59375l1.34375 0.953125q0.515625 0.375 -0.21875 0.453125q-1.125 1.859375 -2.453125 3.265625l2.453125 0l0 1.40625l-3.5 0q-0.8125 0.8125 -1.703125 1.484375l4.15625 0l0 8.3125l-1.484375 0l0 -0.890625l-3.78125 0l0 1.1875l-1.484375 0l0 -6.453125q-1.046875 0.734375 -2.078125 1.1875l-0.671875 -1.5625q2.53125 -0.96875 5.046875 -3.265625l-4.234375 0l0 -1.40625l3.5 0l0 -1.9375l-2.671875 0l0 -1.40625l2.671875 0l0 -2.375l1.40625 0q0.59375 0.078125 0.078125 0.453125l0 1.921875l2.21875 0l0 1.265625zm0 9.28125l-3.78125 0l0 1.921875l3.78125 0l0 -1.921875zm-3.78125 -3.125l0 1.9375l3.78125 0l0 -1.9375l-3.78125 0zm2.0 -4.078125q0.671875 -0.59375 1.703125 -1.9375l-2.140625 0l0 1.9375l0.4375 0zm29.546871 11.5q-3.5625 -0.4375 -6.3125 -1.859375q-2.59375 1.5625 -6.234371 1.9375l-0.59375 -1.5625q3.3437462 -0.296875 5.562496 -1.40625q-1.1875 -1.1875 -2.15625 -2.53125l-2.0781212 0l0 -1.1875l8.687496 0l0.21875 -0.21875l1.125 0.890625q0.296875 0.453125 -0.296875 0.375q-1.265625 1.484375 -3.046875 2.75q2.59375 0.890625 5.484375 1.109375l-0.359375 1.703125zm-6.765625 -15.140625l6.6875 0l0 1.40625l-13.140621 0l0 6.53125q0 4.15625 -1.859375 6.984375l-1.328125 -1.109375q1.703125 -2.3125 1.703125 -6.171875l0 -7.640625l6.234371 0l0 -1.921875l1.640625 0q0.59375 0.0625 0.0625 0.4375l0 1.484375zm0.453125 11.5q0.890625 -0.59375 2.078125 -1.78125l-3.859375 0q0.734375 0.890625 1.78125 1.78125zm2.671875 -4.0l-1.484375 0l0 -0.453125l-3.1875 0l0 0.53125l-1.484375 0l0 -2.96875l-2.9687462 0l0 -1.1875l2.9687462 0l0 -1.421875l1.40625 0q0.59375 0.078125 0.078125 0.453125l0 0.96875l3.1875 0l0 -1.5625l1.40625 0q0.59375 0.078125 0.078125 0.4375l0 1.125l3.5625 0l0 1.1875l-3.5625 0l0 2.890625zm-1.484375 -2.890625l-3.1875 0l0 1.25l3.1875 0l0 -1.25zm14.25 4.296875q3.109375 -0.8125 5.125 -2.59375l1.03125 1.03125q0.21875 0.375 -0.375 0.296875q-2.296875 1.859375 -5.34375 2.53125l-0.4375 -1.265625zm-2.078125 -10.09375q-0.296875 1.78125 -1.1875 4.015625l0.21875 0.0625q0.296875 0.15625 -0.140625 0.453125l0 11.578125l-1.484375 0l0 -9.203125q-0.671875 1.03125 -1.34375 1.78125l-0.8125 -1.265625q2.671875 -3.109375 3.34375 -8.15625l1.625 0.359375q0.296875 0.296875 -0.21875 0.375zm1.40625 4.3125l0 8.96875l-1.484375 0l0 -11.34375l1.40625 0q0.59375 0.0625 0.078125 0.4375l0 1.78125q2.671875 -2.296875 3.484375 -5.046875l1.34375 0.453125q0.296875 0.296875 -0.21875 0.359375q-0.234375 0.75 -0.671875 1.421875l6.453125 0l0 1.40625l-1.78125 0q-0.890625 1.78125 -2.15625 2.8125q1.78125 1.125 5.046875 1.71875l-0.4375 1.484375q-3.71875 -0.828125 -5.5 -2.3125q-1.703125 1.421875 -4.75 2.375l-0.65625 -1.328125q2.96875 -0.890625 4.21875 -1.9375q-1.1875 -1.1875 -1.78125 -2.140625q-0.59375 0.8125 -1.78125 1.84375l-0.8125 -0.953125zm0.453125 10.53125q5.78125 -0.59375 9.125 -4.296875l1.109375 1.109375q0.375 0.375 -0.375 0.296875q-3.78125 3.71875 -9.5 4.234375l-0.359375 -1.34375zm8.15625 -4.59375q0.296875 0.4375 -0.296875 0.296875q-2.453125 2.078125 -6.53125 3.265625l-0.515625 -1.34375q3.78125 -0.96875 6.3125 -3.265625l1.03125 1.046875zm-3.1875 -5.421875q1.03125 -0.890625 1.625 -2.078125l-3.40625 0q0.4375 0.96875 1.78125 2.078125zm8.6875 -3.9375l14.90625 0l0 1.40625l-6.15625 0l0 4.609375l4.828125 0l0 1.40625l-4.828125 0l0 5.265625l6.6875 0l0 1.421875l-15.96875 0l0 -1.421875l2.75 0l0 -8.3125l1.640625 0q0.59375 0.078125 0.0625 0.453125l0 7.859375l3.125 0l0 -11.28125l-7.046875 0l0 -1.40625zm30.875 11.0625q-3.203125 3.484375 -6.90625 3.484375q-2.671875 0 -3.9375 -1.265625q-0.96875 -0.953125 -0.96875 -3.703125l0 -9.953125l1.5625 0q0.671875 0.15625 0.15625 0.59375l0 9.359375q0 1.859375 0.65625 2.515625q0.828125 0.828125 2.453125 0.828125q2.890625 0 5.859375 -3.265625l1.125 1.40625zm16.765625 -8.984375q-2.59375 0 -4.078125 0.515625q-1.640625 0.59375 -3.046875 2.015625q-1.40625 1.40625 -1.40625 3.625q0 1.78125 1.109375 2.90625q1.484375 1.484375 5.71875 1.625l-0.59375 1.640625q-4.375 -0.21875 -6.09375 -1.9375q-1.703125 -1.703125 -1.703125 -4.15625q0 -3.484375 2.75 -5.484375q-3.484375 0.515625 -7.125 1.03125l-0.453125 -1.703125q7.28125 -0.515625 14.625 -1.78125l0.296875 1.703125zm9.644531 4.234375l-7.421875 0l0 -1.640625l15.21875 0l0 1.640625l-6.078125 0l0 0.96875q0 4.671875 -3.34375 7.71875l-1.484375 -1.109375q3.109375 -2.453125 3.109375 -6.609375l0 -0.96875zm-4.75 -4.53125l0 -1.625l9.140625 0l0 1.625l-9.140625 0zm10.09375 -3.046875q0.96875 0.96875 2.078125 2.609375l-1.03125 0.734375q-1.046875 -1.484375 -2.078125 -2.671875l1.03125 -0.671875zm1.78125 -0.953125q0.96875 1.03125 2.078125 2.515625l-1.03125 0.75q-1.1875 -1.640625 -2.078125 -2.53125l1.03125 -0.734375zm16.851562 3.1875q0.59375 0 0.96875 -0.375q0.375 -0.375 0.375 -0.96875q0 -0.59375 -0.375 -0.953125q-0.375 -0.375 -0.96875 -0.375q-0.59375 0 -0.96875 0.375q-0.359375 0.359375 -0.359375 0.953125q0 0.59375 0.359375 0.96875q0.375 0.375 0.96875 0.375zm0 0.734375q-0.890625 0 -1.484375 -0.59375q-0.59375 -0.59375 -0.59375 -1.484375q0 -0.890625 0.59375 -1.484375q0.59375 -0.59375 1.484375 -0.59375q0.890625 0 1.484375 0.59375q0.59375 0.59375 0.59375 1.484375q0 0.890625 -0.59375 1.484375q-0.59375 0.59375 -1.484375 0.59375zm-13.28125 0.96875l0 -1.625l10.984375 0l1.921875 1.40625q-0.359375 8.984375 -10.15625 11.734375l-1.34375 -1.640625q9.28125 -2.15625 9.71875 -9.875l-11.125 0zm29.757812 9.796875l-1.703125 0l0 -0.8125l-8.234375 0l0 1.1875l-1.71875 0l0 -11.578125l11.65625 0l0 11.203125zm-9.9375 -9.578125l0 7.125l8.234375 0l0 -7.125l-8.234375 0zm13.496094 5.421875q7.796875 -3.265625 11.8125 -9.203125l1.40625 1.1875q0.59375 0.453125 -0.515625 0.671875q-1.421875 1.859375 -3.640625 3.78125l0 10.09375l-1.703125 0l0 -8.6875q-2.609375 2.015625 -6.09375 3.640625l-1.265625 -1.484375z" fill-rule="nonzero"/></g></g></svg>